<?xml version="1.0" encoding="UTF-8"?><svg id="Layer_2" xmlns="http://www.w3.org/2000/svg" viewBox="0 0 806.94 707.11"><defs><style>.cls-1{fill:#f6a827;}.cls-2{fill:#0092d0;}</style></defs><g id="Layer_1-2"><g><polygon class="cls-2" points="453.39 77.78 550.16 174.55 627.94 174.55 453.39 0 278.84 174.55 356.62 174.55 453.39 77.78"/><polygon class="cls-1" points="806.94 353.55 663.94 210.55 586.16 210.55 729.16 353.55 588.16 494.55 665.94 494.55 806.94 353.55"/><polygon class="cls-2" points="453.39 629.33 351.62 527.55 273.84 527.55 453.39 707.11 632.94 527.55 555.16 527.55 453.39 629.33"/><path class="cls-2" d="M93.07,300.31c-25.51,0-45.26,6.05-45.26,24.55,0,12.42,8.28,18.48,19.11,18.48,11.81,0,22.01-7.96,25.19-17.84,.64-2.56,.95-5.42,.95-8.29v-16.9h0Zm46.85,36.01c0,14.68,.65,29.02,2.56,37.63h-43.67l-2.87-15.63h-.96c-10.2,12.44-26.13,19.13-44.63,19.13-31.56,0-50.36-22.96-50.36-47.8,0-40.47,36.33-59.61,91.47-59.61v-1.91c0-8.31-4.44-20.07-28.37-20.07-15.95,0-32.82,5.42-43.04,11.47l-8.92-30.93c10.83-6.04,32.2-14.03,60.58-14.03,51.95,0,68.2,30.61,68.2,67.27v54.49h0Z"/><path class="cls-2" d="M288.57,370.11c-8.59,4.15-24.87,7.33-43.35,7.33-50.36,0-82.56-30.91-82.56-80,0-45.6,31.23-82.88,89.25-82.88,12.75,0,26.78,2.24,36.98,6.06l-7.63,36.02c-5.75-2.55-14.36-4.79-27.11-4.79-25.51,0-42.07,18.18-41.76,43.7,0,28.67,19.12,43.99,42.72,43.99,11.46,0,20.39-1.93,27.72-5.12l5.75,35.7h0Z"/><path class="cls-2" d="M321.52,267.79c0-19.44-.65-35.7-1.26-49.73h41.1l1.91,21.36h.96c6.7-10.2,20.72-24.87,47.18-24.87,20.39,0,36.02,10.53,42.73,26.79h.61c6.05-8.29,12.75-14.67,20.4-19.12,8.61-4.8,18.16-7.67,29.64-7.67,29.98,0,52.59,21.04,52.59,67.59v91.8h-47.17v-84.47c0-22.64-7.33-35.71-22.96-35.71-11.46,0-19.13,7.65-22.62,16.9-.96,3.5-1.61,8.27-1.61,12.1v91.18h-47.16v-87.35c0-19.44-7.01-32.83-22.64-32.83-12.41,0-19.75,9.56-22.62,17.2-1.59,3.82-1.91,8.31-1.91,12.44v90.53h-47.17v-106.15h0Z"/><g><path class="cls-1" d="M185.55,476.29c.66,0,1.24,.27,1.74,.81l4.77,5.15c-3.64,4.22-8.05,7.5-13.24,9.86-5.19,2.36-11.46,3.53-18.82,3.53-6.37,0-12.15-1.11-17.36-3.32-5.21-2.21-9.65-5.31-13.33-9.3-3.68-3.99-6.53-8.77-8.56-14.35-2.03-5.58-3.04-11.72-3.04-18.41s1.05-12.83,3.16-18.41c2.11-5.58,5.07-10.38,8.9-14.38,3.82-4.01,8.4-7.12,13.73-9.33,5.33-2.21,11.22-3.32,17.67-3.32s11.9,1.01,16.74,3.04c4.84,2.03,9.09,4.77,12.77,8.25l-3.97,5.52c-.25,.41-.57,.75-.96,1.02-.39,.27-.92,.4-1.58,.4-.74,0-1.65-.4-2.73-1.21-1.08-.81-2.48-1.71-4.22-2.7-1.74-.99-3.91-1.89-6.51-2.7s-5.81-1.21-9.61-1.21c-4.59,0-8.78,.8-12.59,2.39-3.8,1.59-7.08,3.9-9.83,6.91-2.75,3.02-4.89,6.7-6.42,11.04-1.53,4.34-2.29,9.24-2.29,14.69s.8,10.48,2.39,14.82c1.59,4.34,3.76,8.01,6.51,11,2.75,3,5.99,5.28,9.73,6.85,3.74,1.57,7.78,2.36,12.12,2.36,2.64,0,5.03-.15,7.16-.46,2.13-.31,4.09-.79,5.89-1.46,1.8-.66,3.47-1.5,5.02-2.51,1.55-1.01,3.09-2.22,4.62-3.63,.7-.62,1.4-.93,2.11-.93Z"/><path class="cls-1" d="M251.46,419.69c-.37,.62-.77,1.08-1.21,1.39-.43,.31-.96,.47-1.58,.47-.7,0-1.53-.35-2.48-1.05-.95-.7-2.14-1.48-3.56-2.32-1.43-.85-3.14-1.62-5.15-2.33-2.01-.7-4.43-1.05-7.29-1.05-2.69,0-5.05,.36-7.1,1.08-2.05,.72-3.76,1.71-5.15,2.95-1.39,1.24-2.43,2.7-3.13,4.37-.7,1.67-1.05,3.48-1.05,5.42,0,2.48,.61,4.54,1.83,6.17,1.22,1.63,2.83,3.03,4.84,4.19,2,1.16,4.28,2.16,6.82,3.01,2.54,.85,5.15,1.73,7.81,2.63,2.67,.91,5.27,1.93,7.81,3.07s4.81,2.57,6.82,4.31c2,1.74,3.62,3.87,4.84,6.39,1.22,2.52,1.83,5.62,1.83,9.3,0,3.89-.66,7.53-1.98,10.94-1.32,3.41-3.25,6.38-5.8,8.9-2.54,2.52-5.66,4.51-9.36,5.95-3.7,1.45-7.9,2.17-12.62,2.17-5.79,0-11.04-1.04-15.75-3.13s-8.74-4.91-12.09-8.46l3.47-5.7c.33-.46,.73-.84,1.21-1.15,.47-.31,1-.46,1.58-.46,.54,0,1.15,.22,1.83,.65,.68,.43,1.46,.98,2.32,1.64,.87,.66,1.86,1.39,2.98,2.17,1.12,.79,2.39,1.51,3.81,2.17,1.43,.66,3.05,1.21,4.87,1.64,1.82,.43,3.86,.65,6.14,.65,2.85,0,5.39-.39,7.63-1.18,2.23-.79,4.12-1.89,5.67-3.32,1.55-1.43,2.74-3.13,3.56-5.11,.83-1.98,1.24-4.2,1.24-6.63,0-2.69-.61-4.89-1.83-6.6-1.22-1.71-2.82-3.15-4.81-4.31-1.98-1.16-4.26-2.14-6.82-2.94-2.56-.81-5.17-1.63-7.81-2.48-2.65-.85-5.25-1.83-7.81-2.94-2.56-1.12-4.84-2.56-6.82-4.34-1.98-1.78-3.59-4-4.8-6.67-1.22-2.67-1.83-5.96-1.83-9.89,0-3.14,.61-6.18,1.83-9.11,1.22-2.93,3-5.54,5.33-7.81,2.33-2.27,5.21-4.09,8.62-5.46,3.41-1.36,7.33-2.05,11.75-2.05,4.96,0,9.48,.79,13.55,2.36,4.07,1.57,7.66,3.84,10.76,6.82l-2.91,5.7Z"/><path class="cls-1" d="M307.57,485.1c3.68,0,6.96-.62,9.86-1.86,2.89-1.24,5.34-2.98,7.35-5.21,2-2.23,3.53-4.9,4.59-8,1.05-3.1,1.58-6.51,1.58-10.23v-54h11.97v54c0,5.12-.82,9.88-2.45,14.26-1.63,4.38-3.97,8.17-7.01,11.38-3.04,3.2-6.75,5.71-11.13,7.53-4.38,1.82-9.3,2.73-14.76,2.73s-10.38-.91-14.76-2.73c-4.38-1.82-8.1-4.33-11.16-7.53-3.06-3.2-5.4-7-7.04-11.38-1.63-4.38-2.45-9.13-2.45-14.26v-54h11.97v53.94c0,3.72,.53,7.13,1.58,10.23,1.05,3.1,2.58,5.77,4.59,8,2,2.23,4.46,3.98,7.38,5.24,2.91,1.26,6.21,1.89,9.89,1.89Z"/><path class="cls-1" d="M414.89,484.54v10.11h-50.41v-88.85h11.97v78.74h38.44Z"/><path class="cls-1" d="M456.49,405.8c5.46,0,10.16,.54,14.1,1.61,3.95,1.08,7.19,2.6,9.73,4.59,2.54,1.98,4.41,4.41,5.61,7.29,1.2,2.87,1.8,6.11,1.8,9.7,0,2.19-.34,4.29-1.02,6.29-.68,2.01-1.71,3.88-3.07,5.61-1.36,1.74-3.09,3.3-5.18,4.68-2.09,1.39-4.54,2.51-7.35,3.38,6.53,1.24,11.44,3.57,14.72,6.98s4.93,7.88,4.93,13.42c0,3.76-.69,7.19-2.08,10.29-1.39,3.1-3.41,5.77-6.08,8-2.67,2.23-5.94,3.96-9.83,5.18-3.89,1.22-8.31,1.83-13.27,1.83h-31.37v-88.85h28.33Zm-16.37,9.49v30.32h15.87c3.39,0,6.33-.37,8.84-1.12,2.5-.74,4.57-1.78,6.2-3.1,1.63-1.32,2.84-2.92,3.63-4.81,.78-1.88,1.18-3.94,1.18-6.17,0-5.25-1.57-9.08-4.71-11.5-3.14-2.42-8.02-3.63-14.63-3.63h-16.37Zm19.22,69.81c3.43,0,6.39-.39,8.87-1.18,2.48-.79,4.52-1.89,6.11-3.32s2.76-3.12,3.5-5.08c.74-1.96,1.12-4.12,1.12-6.48,0-4.59-1.63-8.21-4.9-10.88-3.27-2.67-8.16-4-14.69-4h-19.22v30.94h19.22Z"/></g></g></g></svg>